<?xml version="1.0" encoding="utf-8"?>
<!-- Generator: Adobe Illustrator 23.0.5, SVG Export Plug-In . SVG Version: 6.00 Build 0)  -->
<svg version="1.1" id="Camada_1" xmlns="http://www.w3.org/2000/svg" xmlns:xlink="http://www.w3.org/1999/xlink" x="0px" y="0px"
	 viewBox="0 0 24 24" style="enable-background:new 0 0 24 24;" xml:space="preserve">
<style type="text/css">
	.st0{fill:#D4CECE;}
</style>
<path class="st0" d="M19,0H5C2.2,0,0,2.2,0,5v14c0,2.8,2.2,5,5,5h14c2.8,0,5-2.2,5-5V5C24,2.2,21.8,0,19,0z M20,16.9
	c0,1.7-1.4,3.1-3.1,3.1H7.2C5.5,20,4,18.6,4,16.9V10h4.5c-0.4,0.6-0.6,1.3-0.6,2.1c0,2.2,1.8,4.1,4.1,4.1s4.1-1.8,4.1-4.1
	c0-0.8-0.2-1.5-0.6-2.1H20V16.9z M8.9,12.1c0-0.9,0.4-1.8,1.1-2.4c0.2-0.2,0.5-0.4,0.8-0.5C11.1,9,11.5,8.9,12,8.9s0.9,0.1,1.3,0.3
	c0.3,0.1,0.5,0.3,0.8,0.5c0.7,0.6,1.1,1.4,1.1,2.4c0,1.7-1.4,3.1-3.1,3.1C10.3,15.2,8.9,13.8,8.9,12.1z M20,9.3h-5
	C14.2,8.5,13.1,8,12,8S9.8,8.5,9,9.3H4V7.1c0-1.1,0.5-2,1.3-2.5v2.7H6V4.2C6.2,4.1,6.4,4.1,6.7,4v3.3h0.7V4H8v3.3h0.7V4h8.2
	C18.6,4,20,5.4,20,7.1V9.3z M9.7,12.1c0-1.3,1-2.3,2.3-2.3s2.3,1,2.3,2.3s-1,2.3-2.3,2.3S9.7,13.4,9.7,12.1z M18.7,5.8v1.7
	c0,0.3-0.2,0.5-0.5,0.5h-1.7C16.2,8,16,7.8,16,7.5V5.8c0-0.3,0.2-0.5,0.5-0.5h1.7C18.4,5.3,18.7,5.6,18.7,5.8z"/>
</svg>
